<?xml version="1.0" standalone="no"?>
<!DOCTYPE svg PUBLIC "-//W3C//DTD SVG 20010904//EN"
 "http://www.w3.org/TR/2001/REC-SVG-20010904/DTD/svg10.dtd">
<svg version="1.0" xmlns="http://www.w3.org/2000/svg"
 width="260.000000pt" height="260.000000pt" viewBox="0 0 260.000000 260.000000"
 preserveAspectRatio="xMidYMid meet">
<metadata>
Created by potrace 1.14, written by Peter Selinger 2001-2017
</metadata>
<g transform="translate(0.000000,260.000000) scale(0.100000,-0.100000)"
fill="#000000" stroke="none">
<path d="M1649 2584 c-10 -12 -10 -20 -1 -35 16 -25 15 -29 -8 -29 -11 0 -20
-5 -20 -12 0 -6 -7 -20 -17 -30 -13 -14 -13 -18 -2 -18 11 0 11 -2 -1 -10 -12
-8 -10 -10 9 -10 19 0 22 -4 18 -21 -5 -18 -2 -20 21 -15 l27 6 -25 -14 c-14
-8 -26 -10 -28 -5 -6 15 -21 10 -32 -11 -10 -19 -9 -20 13 -15 14 4 28 2 31
-4 9 -14 43 -14 48 0 3 8 15 9 38 4 19 -5 29 -10 23 -12 -7 -3 -13 -13 -13
-23 0 -26 -17 -34 -77 -36 -37 -1 -53 2 -53 11 0 9 -11 10 -45 4 -25 -5 -53
-13 -63 -18 -9 -5 -38 -12 -64 -16 -26 -4 -49 -13 -52 -22 -3 -7 -32 -26 -63
-40 -72 -33 -128 -74 -113 -83 6 -4 -8 -17 -34 -31 -53 -28 -67 -48 -30 -44
13 1 24 -2 24 -6 0 -5 -2 -9 -4 -9 -2 0 -20 -7 -40 -15 l-37 -16 7 37 c4 24 3
39 -5 44 -15 9 -4 60 15 67 8 3 14 12 14 20 0 8 4 12 10 8 5 -3 6 -13 3 -23
-3 -10 10 -2 30 17 21 19 37 42 37 50 0 10 -11 3 -30 -19 -16 -19 -30 -29 -30
-22 0 23 -28 12 -59 -23 -28 -32 -44 -84 -22 -71 14 9 2 -26 -19 -54 -17 -23
-19 -24 -26 -6 -4 10 -2 27 4 37 12 19 4 53 -14 56 -5 1 -19 -18 -30 -43 -20
-45 -31 -53 -52 -32 -13 13 -17 6 -27 -54 -5 -30 -3 -38 9 -38 11 0 9 -6 -7
-24 -18 -20 -23 -22 -30 -10 -4 7 -3 31 2 51 13 45 14 63 3 63 -11 0 -32 -77
-26 -97 5 -15 4 -16 -5 -3 -6 8 -11 11 -11 5 0 -5 -5 -3 -10 5 -6 10 -5 20 4
30 15 17 27 70 16 70 -17 0 -31 -31 -37 -81 -4 -34 -3 -50 4 -46 6 4 8 -4 5
-21 l-5 -27 -8 28 c-4 16 -12 34 -18 41 -6 7 -10 15 -8 17 1 2 -3 -2 -10 -10
-7 -8 -19 -11 -30 -7 -14 6 -13 3 4 -13 26 -25 37 -27 29 -6 -3 8 -1 15 4 15
6 0 10 -17 10 -37 0 -35 -1 -36 -15 -17 -13 18 -14 18 -15 1 0 -10 -4 -16 -10
-12 -5 3 -7 12 -4 19 3 8 1 17 -5 21 -6 3 -11 3 -12 -2 0 -4 -2 -18 -3 -31 -2
-13 4 -26 12 -31 12 -7 12 -9 -2 -14 -11 -5 -15 -3 -10 5 4 7 3 8 -4 4 -18
-11 -14 -33 6 -41 16 -6 16 -7 -1 -20 -11 -7 -14 -16 -8 -19 5 -4 9 -15 8 -26
-1 -10 -5 -16 -9 -14 -5 3 -21 -8 -37 -25 -16 -17 -36 -31 -45 -31 -9 0 -16
-8 -16 -17 0 -15 -2 -14 -15 3 -8 10 -15 29 -15 42 0 12 -4 22 -10 22 -5 0
-10 -4 -10 -10 0 -5 -7 -10 -15 -10 -40 0 -125 -118 -166 -231 -12 -33 -24
-58 -26 -55 -9 9 17 125 40 177 l24 56 -28 19 c-16 10 -29 28 -29 39 0 12 -4
25 -9 30 -5 6 -12 26 -15 46 -10 64 -53 129 -113 170 -23 16 -43 37 -43 45 0
16 -25 67 -47 94 -6 8 -13 20 -14 25 -9 36 -25 65 -36 65 -7 0 -13 4 -13 10 0
5 -3 9 -7 8 -5 -1 -18 3 -30 10 l-23 13 0 -1111 0 -1110 240 0 240 0 4 23 c8
37 15 194 7 168 -3 -14 -13 -27 -20 -29 -21 -7 -9 107 19 186 12 35 20 72 17
82 -5 21 13 80 42 138 22 45 37 105 21 82 -9 -12 -10 -10 -4 10 8 27 8 30 6
77 -2 26 -5 30 -22 26 -18 -5 -20 0 -20 35 0 23 -4 43 -10 47 -15 9 -4 105 19
162 14 34 19 63 14 83 -3 17 -1 41 5 53 20 41 20 74 0 86 -15 9 -18 8 -18 -10
0 -11 -4 -17 -10 -14 -13 8 -13 52 0 60 6 3 10 14 10 25 0 17 19 30 43 30 39
-1 77 -83 56 -122 -6 -12 -6 -25 1 -39 9 -15 8 -24 -1 -35 -14 -17 -33 -19
-23 -2 4 7 3 8 -4 4 -18 -11 -14 -34 7 -46 25 -13 48 -4 57 22 5 18 8 19 21 5
13 -13 13 -18 -3 -43 -14 -20 -15 -29 -6 -32 17 -5 15 -22 -9 -71 -21 -44 -22
-72 -3 -78 14 -5 34 40 34 75 1 23 2 25 11 9 13 -22 -4 -113 -32 -176 -22 -47
-22 -55 1 -38 30 23 49 66 61 133 21 127 51 145 43 27 -3 -43 -7 -107 -8 -143
-1 -36 -8 -74 -15 -85 -12 -19 -12 -19 -7 5 5 24 4 24 -9 6 -8 -11 -15 -27
-15 -37 0 -9 -7 -22 -15 -29 -19 -16 -19 -34 0 -26 11 4 15 -2 15 -24 0 -17 5
-30 11 -30 6 0 8 -9 4 -20 -4 -11 -2 -20 4 -20 6 0 11 -13 11 -29 0 -20 6 -30
20 -34 22 -6 29 2 53 54 9 19 25 43 37 54 20 18 20 18 20 -3 0 -11 -4 -23 -9
-26 -4 -3 -14 -32 -21 -66 -14 -67 -5 -92 33 -86 24 3 39 43 35 96 -2 33 -1
35 26 32 36 -4 56 13 56 49 0 42 23 109 37 109 14 0 29 -45 24 -70 -1 -8 -10
-23 -18 -32 -8 -9 -12 -25 -9 -36 4 -11 0 -46 -9 -78 -8 -32 -16 -74 -16 -94
-1 -19 -3 -27 -6 -17 -2 9 -9 14 -15 11 -6 -4 -14 0 -19 7 -7 11 -9 9 -9 -6
-1 -19 -1 -19 -11 -2 -6 10 -8 30 -5 45 4 23 3 23 -9 -6 -30 -65 -41 -263 -21
-352 4 -14 4 -19 0 -12 -8 17 -44 15 -44 -3 0 -19 90 -21 108 -3 9 9 12 9 12
0 0 -7 5 -12 10 -12 6 0 4 13 -5 30 -17 33 -19 44 -6 36 14 -9 23 48 15 91 -5
21 -7 43 -7 48 11 92 15 105 33 105 10 0 20 -5 22 -11 2 -5 14 4 27 21 15 21
26 55 32 103 15 113 35 164 67 172 38 9 52 23 53 54 1 17 3 20 6 8 7 -27 23
-20 30 14 5 25 10 30 27 25 12 -3 25 -6 29 -6 4 0 3 -9 -3 -20 -6 -12 -9 -29
-5 -39 3 -10 -1 -24 -10 -31 -8 -7 -15 -23 -15 -35 0 -26 -24 -50 -40 -40 -13
8 -13 -33 1 -74 10 -29 15 -32 47 -29 33 3 35 1 49 -42 11 -37 11 -53 1 -85
-7 -22 -18 -44 -25 -48 -7 -4 -13 -18 -13 -30 -1 -27 -24 -60 -35 -49 -5 4 -5
-1 -2 -10 3 -10 2 -20 -3 -23 -5 -3 -9 18 -9 49 1 55 -23 113 -34 84 -3 -7 -6
3 -7 22 0 19 -7 46 -15 60 -8 14 -14 37 -15 52 0 15 -4 30 -10 33 -5 3 -10 2
-10 -3 0 -5 -10 -20 -22 -33 -37 -40 -58 -77 -57 -101 0 -29 33 -155 42 -164
4 -4 7 -13 7 -21 0 -7 10 -28 22 -47 l22 -33 21 25 21 24 12 -41 13 -41 73 0
c70 0 74 1 80 24 3 14 2 35 -3 48 -4 13 -11 41 -15 63 -6 32 -5 38 5 27 14
-13 30 -16 28 -4 -4 22 2 42 11 37 17 -10 40 15 40 42 0 22 2 24 15 13 9 -7
14 -19 11 -27 -3 -7 -1 -13 3 -13 11 0 27 -76 23 -109 -2 -14 -10 -30 -19 -36
-11 -9 -14 -20 -9 -40 6 -25 8 -26 20 -10 18 25 43 27 59 6 13 -18 114 -31
103 -13 -3 6 2 16 11 23 14 12 15 11 9 -9 l-7 -22 275 0 c239 0 276 2 276 15
0 8 4 15 9 15 5 0 12 7 15 16 3 8 2 12 -4 9 -6 -3 -10 1 -10 9 0 12 -5 14 -25
6 -22 -9 -25 -7 -25 15 0 13 -5 27 -11 31 -6 3 -9 14 -6 24 2 10 1 24 -4 31
-6 10 -9 8 -9 -8 0 -12 -4 -25 -10 -28 -6 -3 -10 1 -10 9 0 9 -4 16 -9 16 -5
0 -9 6 -8 13 0 6 -1 23 -2 37 l-3 25 -7 -25 -7 -25 -27 28 c-21 20 -32 25 -45
18 -9 -5 -21 -9 -27 -10 -5 0 -11 -9 -13 -21 -2 -11 -8 -20 -14 -20 -6 0 -7 7
-3 17 18 44 18 56 3 50 -10 -3 -18 1 -21 13 -3 11 1 21 10 24 10 4 14 16 11
36 -3 17 -1 30 4 30 4 0 8 9 8 19 0 11 5 23 10 26 6 4 9 1 8 -7 -2 -8 8 -14
25 -16 20 -2 33 -14 50 -43 12 -21 31 -42 42 -45 11 -3 34 -12 50 -19 51 -22
70 -22 71 0 0 11 -5 27 -10 35 -6 8 1 5 15 -5 18 -14 35 -45 54 -101 16 -49
36 -90 51 -103 26 -23 33 -76 12 -84 -7 -3 35 -6 95 -6 l107 -1 0 98 c0 103
-10 133 -37 107 -7 -8 -13 -18 -12 -22 4 -22 -3 -31 -21 -28 -11 2 -20 -2 -20
-8 0 -7 -10 4 -22 23 -12 19 -39 54 -59 78 -33 38 -37 46 -27 68 6 13 15 24
19 24 5 0 6 6 3 14 -3 8 0 17 7 22 7 4 10 3 5 -4 -10 -17 10 -23 38 -12 20 7
26 16 26 40 0 46 32 36 44 -13 6 -25 15 -37 27 -37 24 0 30 24 11 51 -14 21
-14 22 1 16 15 -6 17 7 17 133 0 127 -9 173 -23 120 -3 -11 -11 -20 -17 -20
-8 0 -10 9 -6 23 3 14 -1 33 -10 45 -21 30 -10 66 16 52 49 -26 43 10 -9 56
-31 28 -41 30 -41 7 0 -13 -6 -11 -28 10 -33 32 -58 35 -67 7 -4 -11 -11 -18
-16 -15 -5 4 -9 -1 -9 -9 0 -30 -17 -16 -34 28 -9 24 -26 52 -36 61 -11 10
-20 22 -20 27 0 11 38 10 45 -2 4 -6 12 -5 21 4 10 11 12 21 4 40 -5 14 -7 26
-3 26 3 0 -2 10 -13 21 l-19 21 52 -4 c55 -5 57 -2 20 40 -11 12 -16 22 -10
22 6 0 24 13 39 29 16 16 40 31 54 33 14 1 28 6 31 11 3 4 22 -4 43 -18 l37
-25 -2 108 c-1 108 -13 152 -42 152 -7 0 -26 14 -43 31 -16 17 -42 37 -57 46
-17 8 -27 20 -23 28 3 9 -9 22 -30 35 -18 12 -34 23 -34 24 0 1 16 2 36 1 28
-1 43 -8 66 -35 16 -19 37 -44 47 -55 10 -11 23 -29 29 -40 18 -32 14 2 -4 38
-20 39 -83 107 -100 107 -19 0 -94 52 -88 62 10 16 32 8 70 -27 24 -22 44 -33
55 -30 11 4 23 -3 33 -17 23 -33 20 -11 -5 28 -21 34 -39 44 -39 22 0 -6 -9
-3 -20 7 -11 10 -20 24 -20 32 0 11 5 11 30 -2 31 -16 40 -9 18 14 -11 10 -9
11 6 5 16 -6 18 -4 13 10 -4 10 -7 22 -7 27 0 5 -7 9 -16 9 -14 0 -15 -2 -3
-17 13 -15 12 -15 -8 -5 -27 15 -36 15 -28 2 8 -13 -1 -13 -25 0 -13 7 -21 7
-25 0 -14 -22 -48 -1 -39 24 5 13 14 16 38 11 29 -5 30 -5 13 9 -11 8 -36 18
-58 21 -24 4 -39 12 -39 21 0 8 1 14 3 14 13 0 140 -50 151 -59 8 -7 20 -10
25 -7 15 10 51 -16 51 -36 0 -9 6 -21 14 -25 7 -4 17 -21 23 -37 5 -17 15 -32
21 -34 9 -3 12 115 12 497 l0 501 -469 0 c-415 0 -470 -2 -482 -16z m191 -144
c0 -5 -5 -10 -11 -10 -5 0 -7 5 -4 10 3 6 8 10 11 10 2 0 4 -4 4 -10z m-90
-44 c0 -2 -7 -7 -16 -10 -8 -3 -12 -2 -9 4 6 10 25 14 25 6z m80 -20 c0 -11
-19 -15 -25 -6 -3 5 1 10 9 10 9 0 16 -2 16 -4z m-40 -46 c12 -8 11 -10 -7
-10 -13 0 -23 5 -23 10 0 13 11 13 30 0z m-36 -65 c-14 -19 -30 -33 -34 -30
-4 3 -10 -2 -14 -10 -3 -8 -17 -15 -31 -15 -23 0 -25 3 -19 23 3 12 9 23 13
25 3 2 22 11 41 21 19 11 43 19 53 20 16 1 14 -4 -9 -34z m61 15 c-5 -15 -2
-20 12 -20 13 0 8 -6 -15 -20 -44 -27 -77 -27 -42 0 14 11 19 20 12 20 -17 0
8 40 26 40 9 0 11 -7 7 -20z m-352 -31 c-14 -14 -83 -23 -83 -11 0 4 17 9 37
10 21 2 39 5 42 7 2 3 7 5 10 5 3 0 0 -5 -6 -11z m503 -1 c-27 -15 -87 -28
-80 -17 3 5 -2 9 -10 9 -9 0 -16 5 -16 10 0 6 27 10 63 10 50 -1 58 -3 43 -12z
m-199 -52 c-4 -10 3 -12 26 -10 31 3 32 3 8 -10 -22 -12 -71 -11 -71 3 0 10
22 31 33 31 5 0 7 -6 4 -14z m287 -61 c-4 -10 0 -15 12 -15 18 -1 18 -1 0 -15
-11 -8 -30 -15 -42 -15 -34 0 -39 -18 -7 -22 17 -2 -2 -8 -49 -16 -43 -6 -81
-13 -85 -14 -4 -2 -9 1 -10 7 -1 5 -10 12 -20 16 -14 5 -7 11 31 27 27 12 58
22 69 22 11 0 17 3 13 7 -4 4 10 13 31 19 53 17 63 16 57 -1z m-774 -19 c0 -2
-7 -7 -16 -10 -8 -3 -12 -2 -9 4 6 10 25 14 25 6z m3 -53 c-7 -21 -83 -97 -83
-84 0 6 5 13 11 17 8 5 8 9 -1 14 -8 5 -1 11 19 18 17 6 31 18 31 26 0 12 6
18 27 25 1 1 0 -7 -4 -16z m357 3 c0 -2 -19 -16 -42 -32 -24 -16 -49 -36 -56
-44 -8 -8 -11 -9 -7 -2 11 21 -9 13 -24 -9 -12 -20 -11 -21 6 -15 16 5 16 4
-2 -9 -16 -13 -37 -15 -115 -9 -109 9 -116 9 -150 -1 l-25 -8 26 21 c15 12 37
26 50 32 27 11 61 32 69 41 3 3 27 8 53 11 37 4 47 3 43 -7 -4 -10 4 -12 32
-8 20 3 46 11 57 16 11 6 26 12 33 13 8 1 16 5 20 8 6 7 32 8 32 2z m510 -17
c0 -5 -10 -8 -22 -8 -18 1 -19 2 -5 6 9 2 14 9 11 15 -4 7 -2 8 4 4 7 -4 12
-11 12 -17z m-1100 -26 c0 -10 -10 -29 -21 -43 -20 -24 -21 -24 -16 -2 5 22
-7 30 -18 12 -3 -5 -16 -15 -28 -21 -17 -9 -15 -5 7 17 17 16 37 29 45 31 9 1
17 7 19 12 6 17 12 13 12 -6z m285 10 c-11 -3 -31 -15 -45 -28 -14 -12 -37
-30 -52 -40 -15 -9 -25 -21 -22 -26 3 -5 -3 -9 -13 -9 -13 1 0 17 41 55 42 39
67 55 85 54 21 -1 22 -2 6 -6z m-365 -23 c0 -5 -4 -10 -10 -10 -5 0 -10 5 -10
10 0 6 5 10 10 10 6 0 10 -4 10 -10z m190 -9 c-12 -24 -30 -36 -30 -21 0 6 -6
8 -12 5 -7 -4 -2 3 11 14 29 26 45 27 31 2z m655 5 c6 -2 -7 -12 -28 -22 -31
-15 -40 -16 -47 -5 -8 13 -31 11 -76 -6 -12 -4 -15 -3 -10 5 9 14 -5 15 -59 2
l-40 -9 24 18 c14 11 30 17 36 15 6 -3 29 -1 50 4 35 7 121 6 150 -2z m428
-13 c22 -15 34 -29 28 -31 -13 -4 -81 36 -81 49 0 15 11 11 53 -18z m-84 -7
c23 -14 10 -24 -32 -24 -24 0 -61 -4 -83 -9 -54 -12 -156 -10 -161 3 -7 21 89
42 178 40 47 -2 91 -6 98 -10z m128 -47 l28 -11 -25 -10 c-56 -21 -100 -13
-100 18 0 17 56 19 97 3z m-720 -5 c-3 -3 -12 -4 -19 -1 -8 3 -5 6 6 6 11 1
17 -2 13 -5z m838 -112 c-8 -8 -25 10 -19 20 4 6 9 5 15 -3 4 -7 6 -15 4 -17z
m-135 9 l25 -7 -22 -8 c-26 -8 -63 0 -63 15 0 10 23 10 60 0z m98 -12 c2 -12
-4 -15 -28 -11 -25 4 -28 7 -19 19 15 17 43 13 47 -8z m-896 -11 c-7 -7 -12
-8 -12 -2 0 6 3 14 7 17 3 4 9 5 12 2 2 -3 -1 -11 -7 -17z m38 -8 c0 -5 -2
-10 -4 -10 -3 0 -8 5 -11 10 -3 6 -1 10 4 10 6 0 11 -4 11 -10z m635 -30 c-3
-5 -13 -10 -21 -10 -8 0 -14 5 -14 10 0 6 9 10 21 10 11 0 17 -4 14 -10z m58
-57 c-7 -2 -19 -2 -25 0 -7 3 -2 5 12 5 14 0 19 -2 13 -5z m-1623 -86 c0 -5
-4 -5 -10 -2 -5 3 -10 14 -10 23 0 15 2 15 10 2 5 -8 10 -19 10 -23z m35 -29
c5 4 5 2 2 -4 -4 -6 2 -19 13 -29 11 -10 17 -21 15 -26 -3 -4 -1 -10 4 -14 10
-6 -6 -55 -18 -55 -21 1 -30 20 -37 75 -2 17 -8 31 -14 33 -5 2 -6 10 -3 18 4
10 9 11 18 4 6 -5 16 -6 20 -2z m195 -98 c0 -5 -2 -10 -4 -10 -3 0 -8 5 -11
10 -3 6 -1 10 4 10 6 0 11 -4 11 -10z m-130 -4 c0 -3 -4 -8 -10 -11 -5 -3 -10
-1 -10 4 0 6 5 11 10 11 6 0 10 -2 10 -4z m1724 -27 c14 -7 23 -15 20 -20 -5
-9 -61 8 -70 22 -7 13 20 11 50 -2z m132 -94 c24 -23 40 -45 37 -49 -4 -3 -15
1 -25 11 -17 15 -18 15 -18 -3 -1 -15 -8 -11 -36 21 -25 28 -37 36 -43 27 -6
-10 -14 -10 -37 -1 -20 8 -25 13 -14 17 8 3 18 10 22 17 14 23 69 4 114 -40z
m-224 33 c-9 -9 -15 -9 -24 0 -9 9 -7 12 12 12 19 0 21 -3 12 -12z m128 -99
c17 -13 18 -17 5 -10 -33 17 -51 31 -40 31 6 0 21 -10 35 -21z m-46 5 c8 -3
12 -12 10 -19 -5 -11 -11 -11 -30 -3 -41 19 -23 39 20 22z m62 -82 c-4 -3 -14
2 -24 12 -16 18 -16 18 6 6 13 -6 21 -14 18 -18z m68 -21 c-8 -8 -44 32 -37
42 3 5 14 -1 24 -14 10 -13 16 -26 13 -28z m-691 2 c-7 -2 -19 -2 -25 0 -7 3
-2 5 12 5 14 0 19 -2 13 -5z m97 -18 c-32 -18 -37 -18 -37 0 0 10 10 15 31 15
l31 -1 -25 -14z m-1229 -46 c-7 -18 -10 -20 -10 -6 -1 11 -5 15 -13 11 -7 -4
-8 -3 -4 5 4 6 12 9 17 6 5 -4 9 -1 9 6 0 7 2 10 5 7 3 -3 1 -16 -4 -29z m876
25 c-3 -3 -12 -4 -19 -1 -8 3 -5 6 6 6 11 1 17 -2 13 -5z m413 -64 c13 -8 13
-10 -2 -10 -9 0 -20 5 -23 10 -8 13 5 13 25 0z m-797 -33 c4 3 7 -2 7 -12 0
-17 -1 -17 -20 0 -11 10 -20 23 -20 29 0 6 7 3 14 -6 7 -10 16 -15 19 -11z
m744 17 c-3 -3 -12 -4 -19 -1 -8 3 -5 6 6 6 11 1 17 -2 13 -5z m-21 -19 c14
-11 15 -14 4 -14 -8 0 -24 6 -34 14 -15 11 -16 15 -5 15 8 0 24 -7 35 -15z
m-1149 -37 c-3 -8 -6 -5 -6 6 -1 11 2 17 5 13 3 -3 4 -12 1 -19z m1107 -29
c16 -14 0 -20 -27 -10 -13 5 -34 7 -46 4 -20 -5 -28 6 -15 20 8 7 76 -3 88
-14z m-283 -36 c13 -16 12 -17 -3 -4 -17 13 -22 21 -14 21 2 0 10 -8 17 -17z
m704 -45 c19 -18 19 -19 1 -12 -11 4 -17 3 -14 -2 3 -5 1 -14 -6 -20 -9 -8
-17 -2 -33 27 l-21 39 26 -6 c15 -4 36 -15 47 -26z m-655 8 c0 -2 3 -11 6 -20
9 -23 -13 -20 -26 4 -9 16 -8 20 5 20 8 0 15 -2 15 -4z m-230 -17 c0 -4 3 -16
7 -26 4 -13 1 -12 -15 6 -26 29 -26 28 -7 28 8 0 15 -4 15 -8z m750 -21 c0 -7
-5 -6 -13 1 -8 6 -18 7 -22 3 -5 -4 -5 -2 -1 5 8 14 36 6 36 -9z m-30 -75 c0
-19 -24 -11 -33 10 -11 28 3 44 20 22 7 -11 13 -25 13 -32z m-891 9 c1 11 7
15 21 11 34 -9 42 -28 21 -47 -18 -17 -20 -17 -40 3 -12 12 -21 29 -20 39 0
14 2 14 9 -3 7 -16 9 -17 9 -3z m-284 -11 c3 -5 1 -12 -5 -16 -5 -3 -10 1 -10
9 0 18 6 21 15 7z m1135 -17 c0 -14 -4 -23 -9 -20 -7 5 -8 23 -2 44 4 12 11
-3 11 -24z m-20 -61 c21 -35 23 -36 36 -19 7 11 11 23 7 29 -3 5 3 6 16 2 15
-5 23 -1 29 12 9 23 32 23 53 1 9 -10 19 -15 23 -11 3 3 6 -1 6 -9 0 -9 -16
-25 -35 -37 -19 -11 -35 -27 -35 -35 0 -9 -9 -20 -20 -26 -11 -6 -20 -17 -20
-24 0 -18 -37 -59 -48 -52 -5 3 -12 34 -16 68 -5 47 -12 68 -29 83 -12 11 -19
16 -14 11 10 -14 9 -28 -3 -21 -6 3 -7 -1 -4 -9 3 -9 2 -16 -4 -16 -5 0 -14
22 -19 49 -8 40 -7 48 4 44 7 -3 13 0 13 6 0 22 37 -7 60 -46z m-1135 17 c-4
-12 -9 -19 -12 -17 -3 3 -2 15 2 27 4 12 9 19 12 17 3 -3 2 -15 -2 -27z m1412
-17 c-4 -17 -4 -17 -12 0 -4 9 -4 25 0 35 8 16 8 16 12 0 3 -10 3 -26 0 -35z
m-565 11 c-6 -11 -7 -27 -1 -41 8 -21 6 -23 -25 -20 -30 2 -33 4 -24 22 14 26
50 66 56 61 2 -3 -1 -12 -6 -22z m-202 -11 c0 -5 -7 -17 -15 -27 -11 -15 -15
-16 -16 -5 0 8 -5 3 -11 -11 -6 -14 -10 -31 -9 -38 1 -8 -3 -20 -10 -28 -6 -7
-9 -21 -5 -30 10 -25 -34 -92 -75 -115 -14 -7 -16 -2 -11 39 6 63 42 131 94
181 42 39 58 49 58 34z m-170 -17 c0 -2 -8 -10 -17 -17 -16 -13 -17 -12 -4 4
13 16 21 21 21 13z m281 -28 c0 -7 3 -38 5 -68 5 -53 5 -54 -14 -37 -10 9 -24
17 -31 17 -7 0 -10 4 -7 9 3 5 -2 8 -12 7 -23 -1 -17 32 11 61 25 24 47 29 48
11z m-774 -90 c-2 -13 -4 -5 -4 17 -1 22 1 32 4 23 2 -10 2 -28 0 -40z m36 17
c-3 -9 -8 -14 -10 -11 -3 3 -2 9 2 15 9 16 15 13 8 -4z m636 -27 c12 -30 46
-58 70 -58 10 0 32 -7 47 -15 16 -8 23 -15 17 -15 -9 0 -7 -6 5 -19 12 -13 20
-15 27 -7 6 6 23 12 38 12 23 1 27 -2 25 -20 -2 -11 -10 -20 -17 -18 -9 2 -11
-3 -7 -13 3 -8 9 -23 12 -32 5 -16 4 -16 -6 -3 -9 12 -10 9 -5 -15 6 -27 5
-28 -8 -11 -13 17 -14 16 -13 -15 2 -33 33 -82 47 -73 4 2 6 -4 5 -13 -2 -9
-8 -19 -14 -21 -6 -2 -8 -10 -5 -18 3 -8 2 -14 -3 -14 -10 0 -79 77 -101 113
-10 15 -25 30 -35 33 -34 10 -71 84 -42 84 8 0 14 5 14 10 0 6 -4 10 -9 10
-13 0 -32 -26 -24 -33 3 -4 1 -7 -7 -7 -10 0 -10 -3 0 -15 11 -13 10 -14 -5
-9 -15 6 -16 4 -8 -10 5 -10 8 -30 5 -44 -5 -24 -6 -25 -13 -7 -7 19 -8 19 -8
-1 -1 -12 -10 -41 -20 -65 -18 -40 -20 -41 -26 -19 -7 28 -7 27 0 160 6 146
10 170 25 180 23 14 30 12 39 -12z m341 6 c0 -8 -4 -13 -9 -9 -5 3 -12 -3 -14
-12 -3 -11 -5 -8 -6 10 -1 18 4 27 14 27 8 0 15 -7 15 -16z m-1120 -61 c-14
-26 -19 -30 -15 -13 9 36 29 74 33 62 2 -6 -6 -28 -18 -49z m1330 -10 c85 -2
182 -32 186 -57 1 -9 -2 -13 -9 -9 -7 4 -8 0 -3 -12 5 -15 4 -16 -8 -6 -16 13
-66 25 -66 16 0 -4 20 -15 45 -26 42 -19 65 -39 29 -25 -14 5 -15 4 -5 -8 8
-10 9 -16 1 -21 -5 -3 -13 1 -16 9 -3 9 -11 16 -18 16 -6 0 -36 13 -67 29 -70
35 -110 46 -107 29 2 -9 -7 -12 -27 -10 l-30 2 25 -14 c22 -13 23 -15 7 -21
-27 -11 -68 4 -97 35 -27 29 -27 29 -22 4 4 -20 1 -23 -13 -17 -11 3 -16 2
-13 -3 4 -5 0 -20 -9 -34 -8 -14 -12 -17 -9 -8 10 33 -14 29 -28 -4 -12 -27
-16 -30 -21 -15 -4 9 -8 41 -9 70 -1 50 0 52 27 55 15 2 27 7 27 11 0 5 9 11
20 14 11 3 18 1 14 -4 -8 -13 10 -11 24 3 9 9 12 9 12 0 0 -17 39 -15 57 4 9
8 19 12 22 7 3 -4 40 -9 81 -10z m-735 -32 c-4 -17 -10 -29 -15 -26 -4 3 -3
18 3 35 14 37 21 31 12 -9z m-508 -33 c-3 -8 -6 -5 -6 6 -1 11 2 17 5 13 3 -3
4 -12 1 -19z m1271 -121 c6 3 12 -2 12 -11 0 -10 -7 -15 -17 -12 -32 6 -53 18
-47 27 3 5 12 5 22 0 9 -4 23 -6 30 -4z m-285 -110 c4 3 7 1 7 -5 0 -7 -4 -12
-8 -12 -12 0 -32 22 -32 35 0 5 7 2 14 -7 7 -10 16 -15 19 -11z m478 8 c3 2 5
-5 5 -15 0 -25 0 -25 -22 8 -13 19 -13 24 -2 15 8 -7 17 -11 19 -8z m-426 -23
c-3 -3 -11 0 -18 7 -9 10 -8 11 6 5 10 -3 15 -9 12 -12z m-135 -2 c9 -6 11
-10 3 -10 -7 0 -10 -7 -6 -16 5 -13 2 -15 -18 -9 -28 9 -49 24 -49 36 0 12 51
11 70 -1z m56 -55 c-22 -17 -66 -20 -66 -6 0 6 15 12 33 14 17 2 37 4 42 5 6
1 1 -5 -9 -13z m203 -24 c8 -14 7 -20 -4 -24 -10 -4 -12 -16 -8 -41 6 -41 5
-41 -44 -21 l-36 15 21 23 c30 32 27 40 -8 22 -16 -8 -35 -15 -42 -14 -7 0 -3
5 10 11 12 6 22 15 22 20 0 10 37 26 62 27 10 1 22 -8 27 -18z m-269 -31 c-6
-11 -13 -20 -16 -20 -2 0 0 9 6 20 6 11 13 20 16 20 2 0 0 -9 -6 -20z m689
-74 c19 -10 20 -14 8 -19 -9 -3 -18 1 -22 11 -5 14 -7 14 -15 2 -8 -13 -10
-12 -10 3 0 20 7 21 39 3z"/>
<path d="M1394 2010 c-6 -6 -20 -12 -32 -15 -20 -3 -74 -35 -61 -35 22 0 98
34 103 46 6 17 4 18 -10 4z"/>
<path d="M1415 1978 c-16 -11 -22 -18 -13 -15 9 3 18 1 21 -6 2 -8 16 -6 45 7
51 23 56 42 6 21 -45 -19 -55 -19 -30 0 30 22 5 17 -29 -7z"/>
<path d="M1589 531 c16 -30 28 -34 27 -8 -1 13 -9 23 -19 25 -16 3 -17 1 -8
-17z"/>
<path d="M2224 496 c24 -19 36 -20 36 -4 0 6 -3 8 -6 5 -4 -3 -16 -2 -28 4
-20 10 -20 10 -2 -5z"/>
<path d="M1502 2497 c-33 -34 -47 -72 -17 -47 8 6 19 9 25 5 17 -11 55 28 52
53 -5 31 -23 28 -60 -11z m38 -22 c-7 -8 -18 -15 -24 -15 -6 0 -2 7 8 15 25
19 32 19 16 0z"/>
<path d="M900 2495 c0 -6 9 -28 21 -49 12 -22 17 -41 11 -45 -5 -3 -6 -14 -3
-25 7 -17 8 -17 23 -2 9 9 21 16 27 16 6 0 11 3 11 8 -1 11 -90 108 -90 97z"/>
<path d="M1150 2485 c-11 -14 -10 -20 13 -43 19 -19 27 -22 27 -11 0 8 -4 20
-10 27 -7 9 -7 9 2 2 17 -14 32 -12 20 3 -6 6 -10 17 -11 22 0 17 -27 17 -41
0z"/>
<path d="M1206 2481 c-3 -4 9 -21 26 -36 21 -19 29 -23 25 -11 -4 10 -7 21 -7
24 0 12 -39 32 -44 23z"/>
<path d="M1350 2465 c0 -8 7 -15 15 -15 9 0 12 6 9 15 -4 8 -10 15 -15 15 -5
0 -9 -7 -9 -15z"/>
<path d="M1208 2419 c7 -9 10 -24 6 -33 -3 -9 -1 -16 5 -16 17 0 13 36 -6 51
-16 12 -17 12 -5 -2z"/>
<path d="M885 2380 c-5 -7 20 -40 31 -40 2 0 4 9 4 19 0 20 -26 36 -35 21z"/>
<path d="M1277 2375 c-4 -8 -2 -17 2 -20 5 -2 11 4 14 15 6 23 -8 27 -16 5z"/>
<path d="M1628 2333 c7 -3 16 -2 19 1 4 3 -2 6 -13 5 -11 0 -14 -3 -6 -6z"/>
<path d="M1470 2320 c-13 -9 -13 -10 0 -10 8 0 22 5 30 10 13 9 13 10 0 10 -8
0 -22 -5 -30 -10z"/>
<path d="M830 2275 c0 -26 3 -33 15 -29 8 4 15 16 15 29 0 13 -7 25 -15 29
-12 4 -15 -3 -15 -29z"/>
<path d="M1239 2274 c-15 -19 -21 -47 -8 -38 5 3 6 10 3 16 -4 6 1 8 15 3 13
-4 21 -2 21 5 0 6 -5 8 -12 4 -8 -5 -9 -2 -5 9 8 21 3 22 -14 1z"/>
<path d="M690 2064 c0 -8 5 -12 10 -9 6 3 10 10 10 16 0 5 -4 9 -10 9 -5 0
-10 -7 -10 -16z"/>
<path d="M617 2021 c-26 -28 -47 -53 -47 -56 0 -15 58 30 79 61 36 53 19 50
-32 -5z"/>
<path d="M770 2060 c-6 -4 -5 -13 5 -26 13 -18 14 -18 15 -1 0 10 5 15 10 12
6 -3 10 0 10 8 0 14 -22 18 -40 7z"/>
<path d="M523 2049 c-12 -16 -14 -81 -2 -73 4 2 2 -9 -3 -24 -12 -31 -6 -62
12 -62 5 0 10 8 10 18 0 14 -2 15 -10 2 -8 -13 -10 -12 -10 3 0 17 13 46 36
77 16 23 16 63 -1 56 -7 -2 -15 0 -17 6 -2 6 -8 5 -15 -3z"/>
<path d="M730 2046 c0 -9 7 -16 16 -16 17 0 14 22 -4 28 -7 2 -12 -3 -12 -12z"/>
<path d="M635 1983 c-38 -46 -38 -46 -7 -23 18 13 39 34 47 47 27 40 1 25 -40
-24z"/>
<path d="M732 1991 c2 -7 7 -12 11 -12 12 1 9 15 -3 20 -7 2 -11 -2 -8 -8z"/>
<path d="M700 1975 c-7 -9 -19 -14 -26 -11 -7 2 -19 -3 -28 -13 -12 -13 -13
-18 -4 -19 7 0 20 -2 28 -4 8 -2 15 0 15 3 0 4 9 16 19 28 11 12 17 23 14 26
-3 3 -11 -2 -18 -10z"/>
<path d="M595 1889 l-30 -31 43 22 c23 11 40 25 37 30 -9 15 -17 11 -50 -21z"/>
<path d="M510 1870 c0 -5 5 -10 10 -10 6 0 10 5 10 10 0 6 -4 10 -10 10 -5 0
-10 -4 -10 -10z"/>
<path d="M444 1815 c5 -19 3 -23 -9 -19 -18 7 -18 4 -5 -33 9 -25 9 -26 -4
-10 -14 18 -14 18 -18 0 -3 -10 3 -27 11 -37 16 -19 15 -19 -10 -2 -24 15 -26
15 -24 -3 1 -20 22 -51 35 -51 3 0 13 12 21 28 7 15 24 44 37 64 31 48 24 88
-14 88 -23 0 -25 -3 -20 -25z"/>
<path d="M610 1209 c0 -5 5 -7 10 -4 6 3 10 8 10 11 0 2 -4 4 -10 4 -5 0 -10
-5 -10 -11z"/>
<path d="M2540 1121 c18 -27 20 -35 9 -42 -12 -7 -11 -13 3 -37 16 -27 16 -29
0 -27 -10 0 -23 4 -30 9 -8 5 -12 1 -13 -11 0 -16 -2 -15 -16 5 -8 12 -20 22
-25 22 -7 0 -7 -4 0 -12 6 -7 13 -31 17 -53 10 -64 24 -92 53 -105 58 -28 62
-24 62 56 0 40 -4 76 -10 79 -5 3 -10 11 -10 16 0 6 5 7 10 4 6 -4 10 11 10
38 0 41 -3 45 -42 67 l-42 23 24 -32z"/>
<path d="M573 1023 c-7 -20 -8 -33 -2 -33 13 0 22 24 17 47 -3 13 -7 9 -15
-14z"/>
<path d="M725 709 c-4 -6 -5 -12 -2 -15 2 -3 7 2 10 11 7 17 1 20 -8 4z"/>
<path d="M643 610 c-19 -29 -17 -48 3 -28 9 8 14 23 12 32 -3 14 -5 14 -15 -4z"/>
<path d="M605 560 c-3 -5 -1 -10 4 -10 6 0 11 5 11 10 0 6 -2 10 -4 10 -3 0
-8 -4 -11 -10z"/>
<path d="M611 487 c-25 -41 -29 -76 -7 -57 16 13 41 78 33 86 -3 3 -14 -10
-26 -29z"/>
<path d="M706 502 c-8 -24 -3 -37 12 -31 4 2 5 15 2 29 l-6 25 -8 -23z"/>
<path d="M803 402 c-24 -18 -24 -16 -27 -242 -1 -67 -5 -89 -18 -102 -25 -25
-23 -58 2 -58 16 0 20 7 21 33 1 38 11 68 24 70 6 1 11 45 12 97 1 52 3 123 6
158 3 34 5 62 4 62 -1 0 -12 -8 -24 -18z"/>
<path d="M521 299 c-6 -18 -9 -34 -7 -36 2 -2 9 10 15 28 6 18 9 34 7 36 -2 2
-9 -10 -15 -28z"/>
<path d="M633 303 c-3 -10 -8 -22 -11 -27 -3 -5 0 -6 5 -3 11 7 25 47 17 47
-3 0 -7 -8 -11 -17z"/>
<path d="M716 294 c-4 -9 -4 -19 -2 -21 8 -8 26 8 26 23 0 19 -16 18 -24 -2z"/>
<path d="M501 234 c0 -11 3 -14 6 -6 3 7 2 16 -1 19 -3 4 -6 -2 -5 -13z"/>
<path d="M2232 215 c-2 -30 12 -40 28 -20 7 8 17 12 23 8 6 -4 7 -1 3 6 -5 7
-11 10 -14 7 -3 -3 -13 1 -22 9 -14 13 -16 12 -18 -10z"/>
<path d="M580 210 c-13 -24 -41 -152 -35 -158 5 -6 25 44 25 62 0 7 7 34 16
60 17 50 13 72 -6 36z"/>
<path d="M2530 180 c0 -5 5 -10 11 -10 5 0 7 5 4 10 -3 6 -8 10 -11 10 -2 0
-4 -4 -4 -10z"/>
<path d="M697 118 c-10 -34 -8 -86 2 -92 10 -7 19 91 10 106 -3 5 -9 -1 -12
-14z"/>
<path d="M2232 115 c0 -16 2 -22 5 -12 2 9 2 23 0 30 -3 6 -5 -1 -5 -18z"/>
<path d="M2257 113 c-4 -3 -7 -11 -7 -17 0 -6 5 -5 12 2 6 6 9 14 7 17 -3 3
-9 2 -12 -2z"/>
<path d="M2306 45 c-20 -41 -17 -50 13 -40 22 7 28 39 12 63 -6 10 -13 3 -25
-23z"/>
<path d="M1495 10 c-3 -5 -1 -10 4 -10 6 0 11 5 11 10 0 6 -2 10 -4 10 -3 0
-8 -4 -11 -10z"/>
</g>
</svg>
